<svg width="30" height="27" viewBox="0 0 30 27" fill="none" xmlns="http://www.w3.org/2000/svg">
<path d="M29.2979 18C29.2976 22.9704 25.2683 27 20.2979 27H9C4.02965 26.9999 0.000202546 22.9703 0 18V10.3408H29.2979V18ZM15.5996 13.8428C15.3003 12.9215 13.9976 12.9215 13.6982 13.8428L13.1318 15.583C12.9979 15.9946 12.6145 16.2742 12.1816 16.2744H10.3506C9.38232 16.2748 8.97949 17.5136 9.7627 18.083L11.2441 19.1592C11.5944 19.4139 11.7413 19.8655 11.6074 20.2773L11.042 22.0176C10.7431 22.9385 11.7965 23.7044 12.5801 23.1357L14.0615 22.0596C14.4118 21.8053 14.886 21.8053 15.2363 22.0596L16.7178 23.1357C17.5014 23.7048 18.5549 22.9387 18.2559 22.0176L17.6904 20.2773C17.5566 19.8656 17.7037 19.4139 18.0537 19.1592L19.5352 18.083C20.3184 17.5136 19.9157 16.2746 18.9473 16.2744H17.1162C16.6834 16.2741 16.2999 15.9946 16.166 15.583L15.5996 13.8428ZM20.1064 0C20.741 0 21.2559 0.514874 21.2559 1.14941V2.29785H22.4043C26.2115 2.29785 29.2978 5.3842 29.2979 9.19141H0C4.17249e-05 5.38428 3.08645 2.29798 6.89355 2.29785H8.04297V1.14941C8.04297 0.514969 8.557 0.000154014 9.19141 0C9.82595 0 10.3408 0.514874 10.3408 1.14941V2.29785H18.958V1.14941C18.958 0.514907 19.472 5.30189e-05 20.1064 0Z" fill="white"/>
</svg>
