<svg width="29" height="25" viewBox="0 0 29 25" fill="none" xmlns="http://www.w3.org/2000/svg">
<path d="M0.046875 13.2812H11.0947C11.485 14.6291 12.8618 15.625 14.5 15.625C16.1382 15.625 17.515 14.6291 17.9053 13.2812H28.9531V17C28.9531 21.4183 25.3714 25 20.9531 25H8.04688C3.6286 25 0.0468756 21.4183 0.046875 17V13.2812ZM20.9531 0C25.3714 3.86258e-07 28.9531 3.58172 28.9531 8V11.7188H17.9053C17.515 10.3709 16.1382 9.375 14.5 9.375C12.8618 9.375 11.485 10.3709 11.0947 11.7188H0.046875V8C0.0468754 3.58172 3.6286 -3.86258e-07 8.04688 0H20.9531Z" fill="white"/>
</svg>
